inDegrees=no
num_controls=7
num_derivatives=13
num_iterations=137
num_multipliers=7
num_parameters=0
num_slacks=7
num_states=26
objective=5.681844
objective_accelerations=0.817713
objective_balance=0.037252
objective_effort=0.375737
objective_height=4.330863
objective_ligament=0.120279
solver_duration=1554.778200
status=Solve_Succeeded
success=true
DataType=double
version=3
OpenSimVersion=4.4-2022-07-23-0e9fedc
endheader
time	/jointset/ground_pelvis/pelvis_tilt/value	/jointset/ground_pelvis/pelvis_tx/value	/jointset/ground_pelvis/pelvis_ty/value	/jointset/hip_l/hip_flexion_l/value	/jointset/hip_l/hip_adduction_l/value	/jointset/hip_l/hip_rotation_l/value	/jointset/back/lumbar_extension/value	/jointset/patellofemoral_l/patellar_flexion_l/value	/jointset/knee_l/knee_flexion_l/value	/jointset/knee_l/knee_adduction_l/value	/jointset/knee_l/knee_rotation_l/value	/jointset/ankle_l/ankle_angle_l/value	/jointset/subtalar_l/subtalar_angle_l/value	/jointset/ground_pelvis/pelvis_tilt/speed	/jointset/ground_pelvis/pelvis_tx/speed	/jointset/ground_pelvis/pelvis_ty/speed	/jointset/hip_l/hip_flexion_l/speed	/jointset/hip_l/hip_adduction_l/speed	/jointset/hip_l/hip_rotation_l/speed	/jointset/back/lumbar_extension/speed	/jointset/patellofemoral_l/patellar_flexion_l/speed	/jointset/knee_l/knee_flexion_l/speed	/jointset/knee_l/knee_adduction_l/speed	/jointset/knee_l/knee_rotation_l/speed	/jointset/ankle_l/ankle_angle_l/speed	/jointset/subtalar_l/subtalar_angle_l/speed	/forceset/tau_hip_flexion_l	/forceset/tau_hip_adduction_l	/forceset/tau_hip_rotation_l	/forceset/tau_knee_flexion_l	/forceset/tau_ankle_angle_l	/forceset/tau_subtalar_angle_l	/forceset/tau_lumbar_extension	lambda_cid13_p0	lambda_cid13_p1	lambda_cid13_p2	lambda_cid13_p3	lambda_cid13_p4	lambda_cid13_p5	lambda_cid14_p0	/jointset/ground_pelvis/pelvis_tilt/accel	/jointset/ground_pelvis/pelvis_tx/accel	/jointset/ground_pelvis/pelvis_ty/accel	/jointset/hip_l/hip_flexion_l/accel	/jointset/hip_l/hip_adduction_l/accel	/jointset/hip_l/hip_rotation_l/accel	/jointset/back/lumbar_extension/accel	/jointset/patellofemoral_l/patellar_flexion_l/accel	/jointset/knee_l/knee_flexion_l/accel	/jointset/knee_l/knee_adduction_l/accel	/jointset/knee_l/knee_rotation_l/accel	/jointset/ankle_l/ankle_angle_l/accel	/jointset/subtalar_l/subtalar_angle_l/accel	gamma_cid13_p0	gamma_cid13_p1	gamma_cid13_p2	gamma_cid13_p3	gamma_cid13_p4	gamma_cid13_p5	gamma_cid14_p0
0	-0.03812842277602845	0.06829604321090041	0.8958945410234661	0.1955292361009247	-0.3225897448597803	-0.471691259908404	-0.137903700187828	0.07015350928391248	0.07015350928391206	-0.174532873315156	-0.1067432230828024	-0.06701017130107029	0.003059983162717131	0	0	0	0	0	0	0	0	0	0	0	0	0	0.09629545675908589	-0.05803260456055318	-0.02033815708743907	-0.1748529312562635	0.08904624491385535	-0.02290966897270994	-0.05039161453629459	-7.86777668765667	6.85657892878434	3.677549446082575	40.91977342244896	-512.9805457775039	-71.28818266428799	-39.62615908819005	-6.196861191316681	-3.136290696271165	-1.161136528846685	15.63813199119616	-1.922999063054273	3.01065827184762	-3.172192593798475	9.358472908590324	9.358472908589308	0.4516435112755665	-1.09330523204105	0.0611101735143124	-2.081653349094379	3.213883405014549e-08	1.590671679370255e-07	3.922816063786368e-08	-1.587997781793124e-08	1.166425672943581e-07	1.196673590472628e-07	6.470081404008351e-09
0.01	-0.03842652458458751	0.0681420888895214	0.8958380739293937	0.1962870886436144	-0.3226847330306857	-0.471540934856003	-0.1380688858112171	0.07060763873418029	0.07060763873420019	-0.1745142931606876	-0.1067925999970168	-0.06700942444396744	0.002955899863716607	-0.05939895396677859	-0.03055483245950811	-0.01125516521300902	0.150819822003224	-0.01890594967436793	0.02994118707378445	-0.03271864703754319	0.09041197503368532	0.09041197503368316	0.003704131239324866	-0.009798332504326017	0.0002655871887244628	-0.02065167252851654	0.09516127250366392	-0.063068363632256	-0.02070266928156531	-0.1782015707300149	0.09440127202539704	-0.01910358224543149	-0.04868783431553256	-5.995516160426964	5.095502410031227	3.707333093309636	37.65319359834658	-513.919953810298	-74.44441366698889	-39.6358891529016	-5.778210738496116	-2.97967792439434	-1.101945148801093	14.69129673359762	-1.860656361960511	2.967273986425303	-3.273929112531209	8.820471253734331	8.820471253734725	0.3280366282913557	-0.9115399837651147	0.02672472144165674	-2.032206679182674	-1.272012096953138e-08	1.576781719885954e-07	1.163956712289851e-07	1.948797423127416e-08	-1.621979775402534e-07	6.078652937596093e-08	-3.008713591115704e-09
0.02	-0.03931197558064559	0.06768966656282664	0.8956702074569359	0.1985306172920677	-0.3229660333867976	-0.4710949129206	-0.1385517035757433	0.07195347022538236	0.07195347022538266	-0.174459023954122	-0.106937648781088	-0.06700253336899863	0.002650243344540414	-0.1174698374990259	-0.05969360106315558	-0.02227987567705298	0.2971352211549481	-0.03726243704202884	0.05913937659882518	-0.06352642822703855	0.1783404081864345	0.1783404081864362	0.007337810399858235	-0.01913437397412224	0.001228843573052133	-0.04031464403513108	0.09402708824807179	-0.06810412270397365	-0.02106718147583496	-0.1815502102038926	0.09975629913686999	-0.01529749551820461	-0.04698405409483427	-4.063962642332927	3.322956816534373	3.740187091119048	34.33010216884959	-513.9378118064261	-77.45939993401697	-39.6644585133057	-5.931247104410368	-2.853077925099055	-1.11504557905368	14.73724742089611	-1.813106601712934	2.862058762098873	-2.790019424188857	8.861764532403093	8.861764532403283	0.4375530955171273	-1.000847025135105	0.2006440126349179	-1.883913144714065	-5.757907598920826e-08	1.562891760401653e-07	1.935631818201065e-07	5.485592628047956e-08	-4.41038522374865e-07	1.905699704659068e-09	-1.248750858623976e-08
0.03	-0.04077148101383117	0.06695173952389481	0.8953928354650252	0.2022168337519112	-0.323427942795555	-0.4703606951414434	-0.1393327274351513	0.07416679755028514	0.0741667975503137	-0.1743673111447792	-0.1071741810103101	-0.06698378418525186	0.002152451898851331	-0.1741279031947964	-0.08777166061733489	-0.03318689285737329	0.4394303226285716	-0.05501472075458726	0.08758856241420519	-0.09241075440990126	0.2639110350984145	0.2639110350984143	0.01099473122551946	-0.02810145277845321	0.002489063501421697	-0.05914431946856451	0.08812385287719028	-0.06344273517769869	-0.02012858699405728	-0.1756209661743948	0.09407260329684122	-0.01533441472378495	-0.04214139772252944	-5.810614211058305	3.52916081013971	3.839419558636382	34.71723951333824	-513.3119387057064	-76.19964295843577	-39.71070738667764	-5.487590842326082	-2.767136940666074	-1.077474644694569	13.87396597812686	-1.740603119377664	2.818979023623756	-2.897500828493444	8.342611051719976	8.342611051719656	0.3282996946509186	-0.8340202980067644	0.08392573525213433	-1.867642683948059	-7.438518469873462e-08	1.925247479711274e-07	2.294270962034818e-07	7.510912870547073e-08	-5.85227383024676e-07	1.902205133161912e-09	-1.338998465791445e-08
